# xmcd
#
# Track frame offsets: 
#        150
#        14703
#        34070
#        48376
#        64440
#        78630
#        90341
#        112573
#        131543
#        147841
#        164432
#        177622
#
# Disc length: 2546 seconds
#
# Revision: 0
# Processed by: cddbd v1.5.2PL0 Copyright (c) Steve Scherf et al.
# Submitted via: ExactAudioCopy v1.3
#
DISCID=a109f00c
DTITLE=Бараби Блус Бенд - Край на залаганията
DYEAR=2019
DGENRE=Blues
TTITLE0=Уиски с бира, шефе
TTITLE1=Градското сметище
TTITLE2=Фейсблус
TTITLE3=Пиянска походка
TTITLE4=Различен вкус
TTITLE5=Обич по навик
TTITLE6=Мокро куче
TTITLE7=В рая или във ада
TTITLE8=Нощен Влак
TTITLE9=Семеен Порок
TTITLE10=Калифорнийски Сън
TTITLE11=Бараба Буги-Вуги
EXTD=
EXTT0=
EXTT1=
EXTT2=
EXTT3=
EXTT4=
EXTT5=
EXTT6=
EXTT7=
EXTT8=
EXTT9=
EXTT10=
EXTT11=
PLAYORDER=
